<svg xmlns="http://www.w3.org/2000/svg" width="1169" height="827" viewBox="0 0 1169 827"><defs><marker id="arrow" markerWidth="9" markerHeight="7" refX="8" refY="3.5" orient="auto"><path d="M0,0 L9,3.5 L0,7 z" fill="#557d91"/></marker></defs><rect width="100%" height="100%" fill="#f7fbfc"/><polyline points="560.0,140.0 560.0,151.5 560.0,151.5 560.0,163.0" fill="none" stroke="#6c8ebf" stroke-width="1.8" marker-end="url(#arrow)"/><polyline points="560.0,218.0 560.0,229.5 560.0,229.5 560.0,241.0" fill="none" stroke="#6c8ebf" stroke-width="1.8" marker-end="url(#arrow)"/><polyline points="560.0,296.0 560.0,307.5 560.0,307.5 560.0,319.0" fill="none" stroke="#6c8ebf" stroke-width="1.8" marker-end="url(#arrow)"/><polyline points="560.0,374.0 560.0,385.5 560.0,385.5 560.0,397.0" fill="none" stroke="#6c8ebf" stroke-width="1.8" marker-end="url(#arrow)"/><polyline points="560.0,452.0 560.0,463.5 560.0,463.5 560.0,475.0" fill="none" stroke="#6c8ebf" stroke-width="1.8" marker-end="url(#arrow)"/><polyline points="560.0,530.0 560.0,541.5 560.0,541.5 560.0,553.0" fill="none" stroke="#6c8ebf" stroke-width="1.8" marker-end="url(#arrow)"/><polyline points="560.0,608.0 560.0,619.5 560.0,619.5 560.0,631.0" fill="none" stroke="#6c8ebf" stroke-width="1.8" marker-end="url(#arrow)"/><text text-anchor="middle" dominant-baseline="middle" font-family="Inter,Segoe UI,Arial,sans-serif" font-size="18.0" font-weight="bold" font-style="normal" fill="#183746"><tspan x="565.0" y="40.0">ContextWeaver NextGen - Layered Architecture</tspan></text><rect x="120.0" y="85.0" width="880.0" height="55.0" rx="10" fill="#e1d5e7" stroke="#9673a6" stroke-width="1.5"/><text text-anchor="middle" dominant-baseline="middle" font-family="Inter,Segoe UI,Arial,sans-serif" font-size="12.0" font-weight="normal" font-style="normal" fill="#183746"><tspan x="560.0" y="112.5">0  Global Edge</tspan></text><rect x="120.0" y="163.0" width="880.0" height="55.0" rx="10" fill="#dae8fc" stroke="#6c8ebf" stroke-width="1.5"/><text text-anchor="middle" dominant-baseline="middle" font-family="Inter,Segoe UI,Arial,sans-serif" font-size="12.0" font-weight="normal" font-style="normal" fill="#183746"><tspan x="560.0" y="190.5">1  Cloud Infrastructure - Terraform</tspan></text><rect x="120.0" y="241.0" width="880.0" height="55.0" rx="10" fill="#d5e8d4" stroke="#82b366" stroke-width="1.5"/><text text-anchor="middle" dominant-baseline="middle" font-family="Inter,Segoe UI,Arial,sans-serif" font-size="12.0" font-weight="normal" font-style="normal" fill="#183746"><tspan x="560.0" y="268.5">2  Kubernetes Foundation - GitOps</tspan></text><rect x="120.0" y="319.0" width="880.0" height="55.0" rx="10" fill="#d5e8d4" stroke="#82b366" stroke-width="1.5"/><text text-anchor="middle" dominant-baseline="middle" font-family="Inter,Segoe UI,Arial,sans-serif" font-size="12.0" font-weight="normal" font-style="normal" fill="#183746"><tspan x="560.0" y="346.5">3  RabbitMQ / Valkey / OpenBao / Observability</tspan></text><rect x="120.0" y="397.0" width="880.0" height="55.0" rx="10" fill="#fff2cc" stroke="#d6b656" stroke-width="1.5"/><text text-anchor="middle" dominant-baseline="middle" font-family="Inter,Segoe UI,Arial,sans-serif" font-size="12.0" font-weight="normal" font-style="normal" fill="#183746"><tspan x="560.0" y="424.5">4  Identity / Governance / Registries</tspan></text><rect x="120.0" y="475.0" width="880.0" height="55.0" rx="10" fill="#fff2cc" stroke="#d6b656" stroke-width="1.5"/><text text-anchor="middle" dominant-baseline="middle" font-family="Inter,Segoe UI,Arial,sans-serif" font-size="12.0" font-weight="normal" font-style="normal" fill="#183746"><tspan x="560.0" y="502.5">5  Orchestration / RAG / Context Memory / Artifacts</tspan></text><rect x="120.0" y="553.0" width="880.0" height="55.0" rx="10" fill="#f8cecc" stroke="#b85450" stroke-width="1.5"/><text text-anchor="middle" dominant-baseline="middle" font-family="Inter,Segoe UI,Arial,sans-serif" font-size="12.0" font-weight="normal" font-style="normal" fill="#183746"><tspan x="560.0" y="580.5">6  Agents / MCPs / Workspaces</tspan></text><rect x="120.0" y="631.0" width="880.0" height="55.0" rx="10" fill="#e1d5e7" stroke="#9673a6" stroke-width="1.5"/><text text-anchor="middle" dominant-baseline="middle" font-family="Inter,Segoe UI,Arial,sans-serif" font-size="12.0" font-weight="normal" font-style="normal" fill="#183746"><tspan x="560.0" y="658.5">7  React Experiences</tspan></text></svg>